# Blender v2.79 (sub 0) OBJ File: ''
# www.blender.org
mtllib switch_sign.mtl
o Cube
v 0.157346 0.965043 0.005333
v -0.285371 0.965043 0.005333
v 0.157346 1.260188 0.005333
v -0.285371 1.260188 0.005333
v 0.304918 1.112616 0.005333
v -0.137799 1.112616 0.005333
v 0.157346 0.965043 -0.005333
v -0.285371 0.965043 -0.005333
v 0.157346 1.260188 -0.005333
v -0.285371 1.260188 -0.005333
v 0.304918 1.112616 -0.005333
v -0.137799 1.112616 -0.005333
v 0.000064 -0.000008 -0.010011
v 0.000064 1.001081 -0.010011
v 0.005069 -0.000008 -0.008670
v 0.005069 1.001081 -0.008670
v 0.008733 -0.000008 -0.005005
v 0.008733 1.001081 -0.005005
v 0.010075 -0.000008 0.000000
v 0.010075 1.001081 0.000000
v 0.008733 -0.000008 0.005005
v 0.008733 1.001081 0.005005
v 0.005069 -0.000008 0.008670
v 0.005069 1.001081 0.008670
v 0.000064 -0.000008 0.010011
v 0.000064 1.001081 0.010011
v -0.004942 -0.000008 0.008670
v -0.004942 1.001081 0.008670
v -0.008606 -0.000008 0.005005
v -0.008606 1.001081 0.005005
v -0.009947 -0.000008 0.000000
v -0.009947 1.001081 0.000000
v -0.008606 -0.000008 -0.005005
v -0.008606 1.001081 -0.005005
v -0.004942 -0.000008 -0.008670
v -0.004942 1.001081 -0.008670
vt 0.835277 0.622044
vt 0.980656 0.767424
vt 0.835277 0.912803
vt 0.399139 0.912803
vt 0.544518 0.767424
vt 0.399139 0.622044
vt 0.835277 0.621770
vt 0.399139 0.621770
vt 0.544518 0.476390
vt 0.399139 0.331011
vt 0.835277 0.331011
vt 0.980656 0.476391
vt 0.400814 0.949077
vt 0.400814 0.938569
vt 0.606409 0.938569
vt 0.606409 0.949077
vt 0.812007 0.949352
vt 0.812007 0.959861
vt 0.606409 0.959862
vt 0.606409 0.949354
vt 0.399139 0.923586
vt 0.399139 0.913078
vt 0.835283 0.913078
vt 0.835283 0.923585
vt 0.400814 0.959862
vt 0.400814 0.949353
vt 0.835271 0.923861
vt 0.835271 0.934369
vt 0.399139 0.934369
vt 0.399139 0.923861
vt 0.812006 0.938569
vt 0.812006 0.949078
vt 0.112955 0.015933
vt 0.112955 0.891032
vt 0.097682 0.891153
vt 0.097682 0.016054
vt 0.082409 0.891275
vt 0.082409 0.016176
vt 0.067136 0.891397
vt 0.067136 0.016298
vt 0.051864 0.891518
vt 0.051864 0.016419
vt 0.036591 0.891640
vt 0.036591 0.016541
vt 0.021318 0.891761
vt 0.021318 0.016662
vt 0.204592 0.015203
vt 0.204592 0.890303
vt 0.189319 0.890424
vt 0.189319 0.015325
vt 0.174046 0.890546
vt 0.174046 0.015446
vt 0.158773 0.890667
vt 0.158773 0.015568
vt 0.143500 0.890789
vt 0.143500 0.015690
vt 0.040998 0.923698
vt 0.048201 0.927857
vt 0.052360 0.935060
vt 0.052360 0.943378
vt 0.048201 0.950581
vt 0.040998 0.954740
vt 0.032680 0.954740
vt 0.025477 0.950581
vt 0.021318 0.943378
vt 0.021318 0.935060
vt 0.025477 0.927857
vt 0.032680 0.923698
vt 0.128228 0.890910
vt 0.128228 0.015811
vt 0.052360 0.911888
vt 0.048201 0.919092
vt 0.040998 0.923251
vt 0.032680 0.923251
vt 0.025477 0.919092
vt 0.021318 0.911888
vt 0.021318 0.903571
vt 0.025477 0.896367
vt 0.032680 0.892209
vt 0.040998 0.892209
vt 0.048201 0.896367
vt 0.052360 0.903571
vn 0.0000 0.0000 1.0000
vn 0.0000 0.0000 -1.0000
vn 0.7071 -0.7071 0.0000
vn -0.7071 -0.7071 0.0000
vn 0.0000 -1.0000 0.0000
vn -0.7071 0.7071 0.0000
vn 0.0000 1.0000 0.0000
vn 0.7071 0.7071 0.0000
vn 0.5000 0.0000 -0.8660
vn 0.8660 0.0000 -0.5000
vn 1.0000 0.0000 0.0000
vn 0.8660 0.0000 0.5000
vn 0.5000 0.0000 0.8660
vn -0.5000 0.0000 0.8660
vn -0.8660 0.0000 0.5000
vn -1.0000 0.0000 0.0000
vn -0.8660 0.0000 -0.5000
vn -0.5000 0.0000 -0.8660
usemtl Material
s 1
f 1/1/1 5/2/1 3/3/1 4/4/1 6/5/1 2/6/1
f 7/7/2 8/8/2 12/9/2 10/10/2 9/11/2 11/12/2
f 1/13/3 7/14/3 11/15/3 5/16/3
f 4/17/4 10/18/4 12/19/4 6/20/4
f 2/21/5 8/22/5 7/23/5 1/24/5
f 6/20/6 12/19/6 8/25/6 2/26/6
f 3/27/7 9/28/7 10/29/7 4/30/7
f 5/16/8 11/15/8 9/31/8 3/32/8
f 13/33/2 14/34/2 16/35/9 15/36/9
f 15/36/9 16/35/9 18/37/10 17/38/10
f 17/38/10 18/37/10 20/39/11 19/40/11
f 19/40/11 20/39/11 22/41/12 21/42/12
f 21/42/12 22/41/12 24/43/13 23/44/13
f 23/44/13 24/43/13 26/45/1 25/46/1
f 25/47/1 26/48/1 28/49/14 27/50/14
f 27/50/14 28/49/14 30/51/15 29/52/15
f 29/52/15 30/51/15 32/53/16 31/54/16
f 31/54/16 32/53/16 34/55/17 33/56/17
f 16/57/7 14/58/7 36/59/7 34/60/7 32/61/7 30/62/7 28/63/7 26/64/7 24/65/7 22/66/7 20/67/7 18/68/7
f 33/56/17 34/55/17 36/69/18 35/70/18
f 35/70/18 36/69/18 14/34/2 13/33/2
f 13/71/5 15/72/5 17/73/5 19/74/5 21/75/5 23/76/5 25/77/5 27/78/5 29/79/5 31/80/5 33/81/5 35/82/5
